<?xml version="1.0" encoding="utf-8"?>
<svg id="master-artboard" viewBox="0 0 406.3487854003906 21.216468811035156" xmlns="http://www.w3.org/2000/svg" width="406.3487854003906px" height="21.216468811035156px" version="1.1" style="shape-rendering:geometricPrecision; text-rendering:geometricPrecision; image-rendering:optimizeQuality; fill-rule:evenodd; clip-rule:evenodd"><defs><style id="ee-google-fonts">@import url(https://fonts.googleapis.com/css?family=Allerta:400);</style></defs><rect id="ee-background" x="0" y="0" width="406.3487854003906" height="21.216468811035156" style="fill: rgb(0, 0, 0); fill-opacity: 0; pointer-events: none;"/><g transform="matrix(1.0320744485364761, 0, 0, 1.0320744485364761, 1.6413594904945106, 1.7629934307070725)"><title>Group</title><g fill="#fff"><path d="M12.667 6.916c0 2.042-.5 3.594-1.502 4.656-1.002 1.063-2.47 1.594-4.4 1.594-1.904 0-3.363-.534-4.38-1.602C1.372 10.496.864 8.94.864 6.9c0-2.02.505-3.563 1.515-4.63C3.388 1.207 4.856.674 6.782.674c1.93 0 3.395.53 4.39 1.586.997 1.056 1.495 2.608 1.495 4.656zm-8.35 0c0 2.346.816 3.52 2.448 3.52.83 0 1.446-.286 1.847-.856.4-.57.602-1.458.602-2.664 0-1.212-.203-2.107-.61-2.686-.407-.578-1.014-.867-1.822-.867-1.644 0-2.466 1.184-2.466 3.553zm23.35-2.192c0 1.356-.4 2.403-1.2 3.142-.8.74-1.936 1.108-3.408 1.108h-.923V13h-3.28V.864h4.202c1.53 0 2.683.335 3.452 1.005.77.668 1.154 1.62 1.154 2.854zM22.136 6.3h.598c.492 0 .884-.137 1.174-.414.29-.276.435-.658.435-1.145 0-.818-.454-1.228-1.36-1.228h-.848v2.79zM40.805 13H33.6V.864h7.205v2.632h-3.927v1.91h3.636v2.63h-3.636v2.29h3.927V13zm17.68 0h-4.3l-4.433-8.55h-.075c.105 1.345.158 2.37.158 3.08V13H46.93V.864h4.283l4.416 8.434h.05a46.936 46.936 0 0 1-.117-2.947V.865h2.92V13zm14.558-3.686c0 .753-.19 1.42-.573 2.005-.382.583-.932 1.037-1.652 1.36-.72.324-1.563.486-2.53.486-.81 0-1.487-.057-2.035-.17a7.49 7.49 0 0 1-1.71-.594V9.48c.625.32 1.276.572 1.95.752.676.18 1.296.27 1.86.27.487 0 .844-.085 1.07-.254a.774.774 0 0 0 .34-.65.712.712 0 0 0-.136-.437c-.09-.124-.238-.25-.44-.377s-.74-.387-1.614-.78c-.792-.36-1.385-.708-1.78-1.046a3.202 3.202 0 0 1-.88-1.162c-.192-.437-.287-.955-.287-1.552 0-1.118.407-1.99 1.22-2.615.814-.625 1.93-.938 3.354-.938 1.256 0 2.537.29 3.843.872l-1.004 2.53c-1.136-.52-2.115-.78-2.94-.78-.426 0-.736.076-.93.225-.193.15-.29.335-.29.556 0 .238.123.45.37.64.246.188.914.53 2.004 1.03 1.046.47 1.772.974 2.18 1.514.406.54.61 1.218.61 2.037zM89.32 13h-3.296V8.053h-3.81V13H78.92V.864h3.294v4.5h3.81v-4.5h3.296V13zm6.623 0V.864h3.295V13h-3.295zm13.147 0h-3.23V.864h7.173v2.632h-3.943v2.316h3.636v2.63h-3.636V13zm15.29 0h-3.28V3.545h-2.963V.865h9.197v2.68h-2.955V13zM141.865 1.952c-1.334 0-2.387.444-3.16 1.332-.77.888-1.157 2.104-1.157 3.648 0 1.588.372 2.815 1.117 3.682.744.866 1.805 1.3 3.183 1.3.847 0 1.812-.154 2.897-.458v1.237c-.84.315-1.88.473-3.113.473-1.787 0-3.166-.542-4.138-1.627-.97-1.086-1.456-2.627-1.456-4.624 0-1.25.233-2.347.7-3.288.47-.94 1.144-1.665 2.026-2.174.883-.51 1.922-.764 3.117-.764 1.274 0 2.386.232 3.338.697L144.62 2.6c-.918-.433-1.837-.648-2.755-.648zm16.062 4.964c0 1.942-.49 3.47-1.474 4.582-.982 1.112-2.347 1.668-4.096 1.668-1.788 0-3.167-.546-4.138-1.64-.972-1.092-1.458-2.635-1.458-4.627 0-1.977.487-3.508 1.46-4.596.975-1.087 2.36-1.63 4.152-1.63 1.743 0 3.104.553 4.084 1.66.98 1.106 1.47 2.634 1.47 4.582zm-9.67 0c0 1.643.35 2.89 1.05 3.74.7.848 1.716 1.273 3.05 1.273 1.345 0 2.36-.424 3.046-1.27.687-.848 1.03-2.095 1.03-3.744 0-1.633-.342-2.87-1.026-3.715-.683-.843-1.694-1.265-3.033-1.265-1.345 0-2.368.425-3.068 1.274-.7.85-1.05 2.084-1.05 3.706zM170.11 13h-1.61l-6.63-10.185h-.067c.09 1.195.133 2.29.133 3.287V13h-1.303V.864h1.594l6.615 10.144h.067c-.012-.15-.037-.63-.076-1.44-.04-.81-.053-1.39-.042-1.74V.865h1.32V13zm7.073 0h-1.412V2.118h-3.843V.864h9.098v1.254h-3.843V13zm13.297 0l-1.51-3.86h-4.865L182.613 13h-1.427L185.983.814h1.187L191.943 13h-1.46zm-1.95-5.13l-1.41-3.76a19.73 19.73 0 0 1-.566-1.752 15.757 15.757 0 0 1-.523 1.752l-1.428 3.76h3.927zm5.08 5.13V.864h1.41V13h-1.41zm14.22 0h-1.61l-6.634-10.185h-.066c.09 1.195.133 2.29.133 3.287V13h-1.303V.864h1.593l6.616 10.144h.067c-.01-.15-.036-.63-.074-1.44-.04-.81-.053-1.39-.042-1.74V.865h1.32V13zm10.1 0h-6.764V.864h6.765v1.254h-5.354v3.91h5.03V7.27h-5.03v4.466h5.353V13zm4.102-5.047V13h-1.41V.864h3.327c1.49 0 2.59.285 3.3.855.712.57 1.067 1.427 1.067 2.572 0 1.605-.813 2.69-2.44 3.254L229.172 13h-1.668l-2.94-5.047h-2.53zm0-1.212h1.934c.996 0 1.726-.197 2.19-.592.466-.396.698-.99.698-1.78 0-.803-.236-1.382-.71-1.736-.472-.354-1.232-.53-2.278-.53h-1.834v4.64zm21.208-2.34c0 1.23-.42 2.174-1.257 2.835-.84.66-2.038.992-3.6.992h-1.427V13h-1.41V.864h3.145c3.033 0 4.55 1.18 4.55 3.536zm-6.284 2.615h1.27c1.25 0 2.156-.202 2.715-.606.56-.405.838-1.052.838-1.943 0-.803-.262-1.4-.787-1.793-.526-.393-1.345-.59-2.457-.59h-1.578v4.93zM245.782 13V.864h1.41v10.858h5.355V13h-6.765zm16.452 0l-1.51-3.86h-4.865L254.364 13h-1.428l4.8-12.186h1.187L263.695 13h-1.46zm-1.95-5.13l-1.41-3.76a19.73 19.73 0 0 1-.566-1.752 15.757 15.757 0 0 1-.523 1.752l-1.428 3.76h3.927zM269.1 13h-1.412V2.118h-3.843V.864h9.097v1.254H269.1V13zm7.08 0h-1.41V.864h6.764v1.254h-5.354v4.44h5.03v1.254h-5.03V13zm17.896-6.084c0 1.942-.49 3.47-1.473 4.582-.982 1.112-2.348 1.668-4.097 1.668-1.787 0-3.166-.546-4.138-1.64-.97-1.092-1.456-2.635-1.456-4.627 0-1.977.487-3.508 1.46-4.596.975-1.087 2.358-1.63 4.15-1.63 1.744 0 3.105.553 4.085 1.66.98 1.106 1.47 2.634 1.47 4.582zm-9.67 0c0 1.643.35 2.89 1.05 3.74.7.848 1.717 1.273 3.05 1.273 1.345 0 2.36-.424 3.047-1.27.686-.848 1.03-2.095 1.03-3.744 0-1.633-.343-2.87-1.026-3.715-.684-.843-1.695-1.265-3.034-1.265-1.345 0-2.367.425-3.067 1.274-.7.85-1.05 2.084-1.05 3.706zm13.787 1.037V13h-1.41V.864h3.328c1.49 0 2.59.285 3.3.855.712.57 1.067 1.427 1.067 2.572 0 1.605-.813 2.69-2.44 3.254L305.332 13h-1.668l-2.94-5.047h-2.53zm0-1.212h1.934c.997 0 1.727-.197 2.192-.592.464-.396.696-.99.696-1.78 0-.803-.236-1.382-.71-1.736-.473-.354-1.232-.53-2.278-.53h-1.835v4.64zm14.47 6.26l-4.12-10.758h-.065c.078.852.116 1.865.116 3.038V13h-1.303V.864h2.126l3.843 10.01h.066l3.876-10.01h2.11V13h-1.413V5.18c0-.896.038-1.87.116-2.92h-.067L313.8 13h-1.138z"/></g></g><path d="M 8.100000381469727 27 L 3.490000009536743 27 L 3.490000009536743 -1.2800006866455078 L 11.630000114440918 -1.2800006866455078 C 12.829999923706055 -1.2800006866455078 14.020000457763672 -1.0900001525878906 15.199999809265137 -0.7099990844726562 C 16.373332977294922 -0.323333740234375 17.426666259765625 0.25333404541015625 18.360000610351562 1.0200004577636719 C 19.293333053588867 1.7866668701171875 20.049999237060547 2.7133331298828125 20.6299991607666 3.799999237060547 C 21.203332901000977 4.886667251586914 21.489999771118164 6.1100006103515625 21.489999771118164 7.469999313354492 C 21.489999771118164 8.90333366394043 21.246665954589844 10.200000762939453 20.760000228881836 11.359999656677246 C 20.273332595825195 12.526666641235352 19.59666633605957 13.506667137145996 18.729999542236328 14.300000190734863 C 17.856666564941406 15.09333324432373 16.80666732788086 15.706666946411133 15.579999923706055 16.139999389648438 C 14.353333473205566 16.573333740234375 12.99666690826416 16.790000915527344 11.510000228881836 16.790000915527344 L 8.100000381469727 16.790000915527344 L 8.100000381469727 27 M 8.100000381469727 2.2099990844726562 L 8.100000381469727 13.420000076293945 L 12.319999694824219 13.420000076293945 C 12.880000114440918 13.420000076293945 13.436666488647461 13.323333740234375 13.989999771118164 13.130000114440918 C 14.536666870117188 12.936666488647461 15.039999961853027 12.623332977294922 15.5 12.1899995803833 C 15.960000038146973 11.75 16.33333396911621 11.140000343322754 16.6200008392334 10.360000610351562 C 16.899999618530273 9.579999923706055 17.040000915527344 8.616666793823242 17.040000915527344 7.469999313354492 C 17.040000915527344 7.010000228881836 16.976667404174805 6.476667404174805 16.850000381469727 5.870000839233398 C 16.71666717529297 5.270000457763672 16.453332901000977 4.696666717529297 16.059999465942383 4.149999618530273 C 15.666666984558105 3.5966663360595703 15.109999656677246 3.136667251586914 14.390000343322754 2.770000457763672 C 13.676666259765625 2.39666748046875 12.729999542236328 2.2099990844726562 11.550000190734863 2.2099990844726562 L 8.100000381469727 2.2099990844726562 ZM 40.98331832885742 27 L 35.64331817626953 16.75 C 35.569984436035156 16.75 35.46998596191406 16.756668090820312 35.343318939208984 16.770000457763672 C 35.209983825683594 16.78333282470703 35.009986877441406 16.790000915527344 34.743316650390625 16.790000915527344 C 34.47665023803711 16.790000915527344 34.066650390625 16.790000915527344 33.5133171081543 16.790000915527344 C 32.966651916503906 16.790000915527344 32.21998596191406 16.790000915527344 31.273319244384766 16.790000915527344 L 31.273319244384766 27 L 26.663318634033203 27 L 26.663318634033203 -1.2800006866455078 L 34.80331802368164 -1.2800006866455078 C 36.003318786621094 -1.2800006866455078 37.19331741333008 -1.0900001525878906 38.37331771850586 -0.7099990844726562 C 39.546653747558594 -0.323333740234375 40.59998321533203 0.25333404541015625 41.53331756591797 1.0200004577636719 C 42.466651916503906 1.7866668701171875 43.22332000732422 2.7133331298828125 43.80331802368164 3.799999237060547 C 44.376651763916016 4.886667251586914 44.6633186340332 6.1100006103515625 44.6633186340332 7.469999313354492 C 44.6633186340332 9.516666412353516 44.18998718261719 11.256667137145996 43.243316650390625 12.6899995803833 C 42.296653747558594 14.123332977294922 41.01665115356445 15.183333396911621 39.4033203125 15.869999885559082 L 45.85331726074219 27 L 40.98331832885742 27 M 31.273319244384766 13.420000076293945 L 35.45331573486328 13.420000076293945 C 36.01998519897461 13.420000076293945 36.583316802978516 13.323333740234375 37.14331817626953 13.130000114440918 C 37.70331573486328 12.936666488647461 38.216651916503906 12.623332977294922 38.683319091796875 12.1899995803833 C 39.14331817626953 11.75 39.5133171081543 11.140000343322754 39.79331970214844 10.360000610351562 C 40.07331848144531 9.579999923706055 40.21331787109375 8.616666793823242 40.21331787109375 7.469999313354492 C 40.21331787109375 7.010000228881836 40.149986267089844 6.476667404174805 40.0233154296875 5.870000839233398 C 39.89665222167969 5.270000457763672 39.63331604003906 4.696666717529297 39.23331832885742 4.149999618530273 C 38.83998489379883 3.5966663360595703 38.28331756591797 3.136667251586914 37.563316345214844 2.770000457763672 C 36.84998321533203 2.39666748046875 35.903316497802734 2.2099990844726562 34.72332000732422 2.2099990844726562 L 31.273319244384766 2.2099990844726562 L 31.273319244384766 13.420000076293945 ZM 75.05694580078125 12.720000267028809 C 75.05694580078125 15.100000381469727 74.75694274902344 17.200000762939453 74.15694427490234 19.020000457763672 C 73.55027770996094 20.83333396911621 72.7169418334961 22.343334197998047 71.65694427490234 23.549999237060547 C 70.59693908691406 24.75 69.35694122314453 25.656665802001953 67.93694305419922 26.270000457763672 C 66.51693725585938 26.883333206176758 64.96360778808594 27.190000534057617 63.276939392089844 27.190000534057617 C 61.58361053466797 27.190000534057617 60.026939392089844 26.883333206176758 58.60694122314453 26.270000457763672 C 57.18694305419922 25.656665802001953 55.94694137573242 24.75 54.886940002441406 23.549999237060547 C 53.826942443847656 22.343334197998047 52.99694061279297 20.83333396911621 52.396942138671875 19.020000457763672 C 51.79027557373047 17.200000762939453 51.486942291259766 15.100000381469727 51.486942291259766 12.720000267028809 C 51.486942291259766 10.34666633605957 51.79027557373047 8.25666618347168 52.396942138671875 6.450000762939453 C 52.99694061279297 4.643333435058594 53.826942443847656 3.1399993896484375 54.886940002441406 1.9400005340576172 C 55.94694137573242 0.7399997711181641 57.18694305419922 -0.17333412170410156 58.60694122314453 -0.7999992370605469 C 60.026939392089844 -1.426666259765625 61.58361053466797 -1.739999771118164 63.276939392089844 -1.739999771118164 C 64.96360778808594 -1.739999771118164 66.51693725585938 -1.426666259765625 67.93694305419922 -0.7999992370605469 C 69.35694122314453 -0.17333412170410156 70.59693908691406 0.7399997711181641 71.65694427490234 1.9400005340576172 C 72.7169418334961 3.1399993896484375 73.55027770996094 4.643333435058594 74.15694427490234 6.450000762939453 C 74.75694274902344 8.25666618347168 75.05694580078125 10.34666633605957 75.05694580078125 12.720000267028809 M 63.15694046020508 23.43000030517578 C 64.10360717773438 23.43000030517578 65.00694274902344 23.24333381652832 65.866943359375 22.869998931884766 C 66.72027587890625 22.503334045410156 67.4869384765625 21.89666748046875 68.16693878173828 21.049999237060547 C 68.84693908691406 20.209999084472656 69.37693786621094 19.10333251953125 69.75694274902344 17.729999542236328 C 70.14360809326172 16.36333465576172 70.35027313232422 14.693333625793457 70.37693786621094 12.720000267028809 C 70.35027313232422 10.80666732788086 70.15027618408203 9.176666259765625 69.77693939208984 7.829999923706055 C 69.40361022949219 6.489999771118164 68.89360809326172 5.383333206176758 68.24694061279297 4.510000228881836 C 67.59361267089844 3.6433334350585938 66.85027313232422 3.0166664123535156 66.01693725585938 2.6299991607666016 C 65.18360900878906 2.25 64.30694580078125 2.059999465942383 63.386940002441406 2.059999465942383 C 62.440277099609375 2.059999465942383 61.54027557373047 2.236665725708008 60.68694305419922 2.5900001525878906 C 59.826942443847656 2.950000762939453 59.056941986083984 3.559999465942383 58.3769416809082 4.420000076293945 C 57.703609466552734 5.273332595825195 57.173606872558594 6.379999160766602 56.78694152832031 7.739999771118164 C 56.40694046020508 9.093334197998047 56.203609466552734 10.753334045410156 56.17694091796875 12.720000267028809 C 56.203609466552734 14.640000343322754 56.40027618408203 16.279998779296875 56.76694107055664 17.639999389648438 C 57.14027404785156 18.993331909179688 57.65361022949219 20.100000381469727 58.306941986083984 20.959999084472656 C 58.96027374267578 21.81333351135254 59.70027542114258 22.440000534057617 60.526939392089844 22.84000015258789 C 61.36027526855469 23.233333587646484 62.236942291259766 23.43000030517578 63.15694046020508 23.43000030517578 ZM 104.52444458007812 12.069999694824219 C 104.52444458007812 14.396666526794434 104.27444458007812 16.38666534423828 103.77444458007812 18.040000915527344 C 103.27444458007812 19.68666648864746 102.64110565185547 21.066665649414062 101.87444305419922 22.18000030517578 C 101.10777282714844 23.293333053588867 100.24443817138672 24.170000076293945 99.28443908691406 24.809999465942383 C 98.3244400024414 25.450000762939453 97.39777374267578 25.93000030517578 96.50444030761719 26.25 C 95.60443878173828 26.56999969482422 94.78443908691406 26.77666664123535 94.04444122314453 26.8700008392334 C 93.304443359375 26.956666946411133 92.75444030761719 27 92.39443969726562 27 L 81.68444061279297 27 L 81.68444061279297 -1.2800006866455078 L 90.20443725585938 -1.2800006866455078 C 92.58444213867188 -1.2800006866455078 94.67777252197266 -0.9033336639404297 96.48443603515625 -0.14999961853027344 C 98.28443908691406 0.60333251953125 99.7811050415039 1.6066665649414062 100.97444152832031 2.8600006103515625 C 102.16110229492188 4.113332748413086 103.04777526855469 5.540000915527344 103.63443756103516 7.1399993896484375 C 104.22777557373047 8.739999771118164 104.52444458007812 10.383333206176758 104.52444458007812 12.069999694824219 M 90.86444091796875 23.619998931884766 C 93.98443603515625 23.619998931884766 96.23443603515625 22.623332977294922 97.61444091796875 20.630001068115234 C 98.99443817138672 18.63666534423828 99.68444061279297 15.74666690826416 99.68444061279297 11.960000038146973 C 99.68444061279297 10.780000686645508 99.54444122314453 9.613332748413086 99.26444244384766 8.459999084472656 C 98.98443603515625 7.313333511352539 98.44110870361328 6.273332595825195 97.63443756103516 5.340000152587891 C 96.82777404785156 4.406665802001953 95.73443603515625 3.6499996185302734 94.35443878173828 3.0699996948242188 C 92.97444152832031 2.4966659545898438 91.18444061279297 2.2099990844726562 88.98443603515625 2.2099990844726562 L 86.29444122314453 2.2099990844726562 L 86.29444122314453 23.619998931884766 L 90.86444091796875 23.619998931884766 Z" transform="matrix(0.4471908211708069, 0, 0, 0.4471908211708069, 340.0910949707031, 2.9936652183532715)" style="fill: rgb(255, 153, 0); white-space: pre; color: rgb(255, 153, 0);"/></svg>